<svg xmlns="http://www.w3.org/2000/svg" width="375" height="159.221" viewBox="0 0 375 159.221">
  <g id="グループ_45" data-name="グループ 45" transform="translate(0 -88.591)">
    <path id="パス_68" data-name="パス 68" d="M0,247.812V101.979c19.64-5.851,39.279-11.7,67.969-11.458s66.429,6.584,92.969,6.51,41.881-6.56,62.24-8.073,45.735,1.949,71.875,4.948S348.1,99.442,375,101.979V247.812Z" fill="rgba(38,161,147,0.27)"/>
    <path id="パス_69" data-name="パス 69" d="M0,357.516V248.141c18.633,3.1,37.266,6.2,61.979,7.813s55.507,1.737,87.5-3.906S214.663,234.993,236.2,237.2s31.413,18.042,52.6,22.135,53.694-3.552,86.2-11.2V357.516Z" transform="translate(0 -109.704)" fill="rgba(38,161,147,0.4)"/>
    <path id="パス_70" data-name="パス 70" d="M0,466.487V393.57c21.406-4.8,42.813-9.6,69.792-8.854s59.53,7.035,82.031,6.25,34.954-8.645,59.375-6.25,60.809,15.044,90.1,18.229,51.5-3.1,73.7-9.375v72.917Z" transform="translate(0 -218.675)" fill="rgba(38,161,147,0.53)"/>
    <path id="パス_71" data-name="パス 71" d="M0,589.8V553.346c18.762,2.811,37.525,5.622,64.844,5.208s63.194-4.052,92.708-3.646,52.668,4.857,76.042,4.427,46.968-5.74,70.573-7.552,47.219-.125,70.833,1.563V589.8Z" transform="translate(0 -341.992)" fill="#37ab9d"/>
  </g>
</svg>
