<svg xmlns="http://www.w3.org/2000/svg" width="273.211" height="196.002" viewBox="0 0 273.211 196.002">
  <g id="グループ_48" data-name="グループ 48" transform="translate(-51 -1048.573)">
    <rect id="長方形_20" data-name="長方形 20" width="273.211" height="0.137" transform="translate(51 1219.899)" fill="#ebebeb"/>
    <rect id="長方形_21" data-name="長方形 21" width="18.097" height="0.137" transform="translate(278.738 1228.691)" fill="#ebebeb"/>
    <rect id="長方形_22" data-name="長方形 22" width="31.682" height="0.137" transform="translate(224.188 1226.844)" fill="#ebebeb"/>
    <rect id="長方形_23" data-name="長方形 23" width="29.567" height="0.137" transform="translate(248.625 1223.62)" fill="#ebebeb"/>
    <rect id="長方形_24" data-name="長方形 24" width="8.147" height="0.137" transform="translate(79.665 1224.538)" fill="#ebebeb"/>
    <rect id="長方形_25" data-name="長方形 25" width="35.19" height="0.137" transform="translate(92.676 1224.538)" fill="#ebebeb"/>
    <rect id="長方形_26" data-name="長方形 26" width="23.578" height="0.137" transform="translate(150.449 1226.844)" fill="#ebebeb"/>
    <path id="パス_75" data-name="パス 75" d="M228.706,321.044c-11.983-9.289-36.288-23.338-83.515-8.486S87.04,273.429,54.342,287C31.939,296.286,15,338.125,15,338.125H246.2S240.672,330.339,228.706,321.044Z" transform="translate(44.196 881.773)" fill="#f0f0f0"/>
    <path id="パス_76" data-name="パス 76" d="M295.408,341.309c-27.124-5.852-36.217,17.431-75.428,11.01s-59.391-.35-69.346,3.65-14.524,7.36-14.524,7.36H328.084S314.02,345.32,295.408,341.309Z" transform="translate(-10.737 856.569)" fill="#e6e6e6"/>
    <path id="パス_77" data-name="パス 77" d="M377.2,128.07c1.372.186,2.83,1.41,4.016,3.2-.809-6.847,1.53-11.661,5.71-11.1s8.612,6.065,10.857,12.885c.388-3.279,2.022-5.306,4.464-4.978,3.421.454,7.224,5.393,8.786,11.251l-36.84-5.093C373.66,130.436,374.917,127.764,377.2,128.07Z" transform="translate(-118.67 956.463)" fill="#f0f0f0"/>
    <path id="パス_78" data-name="パス 78" d="M281.984,180.655a4.962,4.962,0,0,1,2.328,1.093c.311-5.672,2.874-9.289,6.858-8.743,3.656.492,7.6,4.371,10.426,9.694.907-1.962,2.437-3.027,4.421-2.759,2.464.333,5.1,2.639,7.185,5.961a2.6,2.6,0,0,1,2.109-.607c2.055.273,4.268,2.535,5.781,5.606l-42.741-5.907C278.623,182.146,279.967,180.387,281.984,180.655Z" transform="translate(-75.253 932.5)" fill="#f5f5f5"/>
    <path id="パス_79" data-name="パス 79" d="M53.279,176.3c1.437.191,2.967,1.475,4.213,3.35-.852-7.18,1.6-12.223,6.011-11.644,4.295.579,9.021,6.36,11.377,13.513.41-3.442,2.12-5.563,4.683-5.224,3.585.481,7.573,5.655,9.213,11.8l-38.648-5.355C49.574,178.783,50.891,175.975,53.279,176.3Z" transform="translate(28.32 934.765)" fill="#f0f0f0"/>
    <path id="パス_80" data-name="パス 80" d="M82.152,92.352a4.694,4.694,0,0,1,2.186,1.022c.3-5.371,2.732-8.8,6.491-8.295,3.464.464,7.191,4.12,9.874,9.18.858-1.858,2.306-2.863,4.186-2.612,2.328.317,4.825,2.5,6.8,5.639a2.47,2.47,0,0,1,1.994-.546c1.94.262,4.038,2.4,5.464,5.311L78.72,96.429C78.96,93.757,80.234,92.117,82.152,92.352Z" transform="translate(15.294 972.379)" fill="#f5f5f5"/>
    <g id="freepik--Shadow--inject-39" transform="translate(81.66 1232.204)">
      <ellipse id="freepik--path--inject-39" cx="105.946" cy="6.185" rx="105.946" ry="6.185" fill="#f5f5f5"/>
    </g>
    <g id="freepik--Sign--inject-39" transform="translate(201.506 1048.573)">
      <path id="パス_81" data-name="パス 81" d="M296.05,269.542H298V99.7a.973.973,0,0,0-.973-.973h0a.973.973,0,0,0-.973.973Z" transform="translate(-284.788 -82.408)" fill="#92e3a9"/>
      <path id="パス_82" data-name="パス 82" d="M296.05,269.542H298V99.7a.973.973,0,0,0-.973-.973h0a.973.973,0,0,0-.973.973Z" transform="translate(-284.788 -82.408)" fill="#fff" opacity="0.7"/>
      <rect id="長方形_27" data-name="長方形 27" width="1.945" height="2.47" transform="translate(13.207 27.277) rotate(180)" fill="#92e3a9" opacity="0.4"/>
      <path id="パス_83" data-name="パス 83" d="M322.924,95.53l8.83,7.36-8.83,7.36v-3.945H277.21a1.77,1.77,0,0,1-1.77-1.77v-3.279a1.77,1.77,0,0,1,1.77-1.77h45.714Z" transform="translate(-275.44 -80.957)" fill="#92e3a9"/>
      <path id="パス_84" data-name="パス 84" d="M324.74,118.733h0l3.475-1.863-2.306,11.256-10.666-4.289,3.475-1.869h0c-3.393-6.311-11.4-12.36-18.578-12.36V102.75C311.09,102.75,319.56,109.078,324.74,118.733Z" transform="translate(-286.643 -84.232)" fill="#92e3a9"/>
      <path id="パス_85" data-name="パス 85" d="M307.033,94.851a22.884,22.884,0,0,0,8.437-4.836l-.361-.415a22.354,22.354,0,0,1-8.229,4.727Z" transform="translate(-289.701 -78.267)" fill="#92e3a9"/>
      <path id="パス_86" data-name="パス 86" d="M326.214,83.988a22.487,22.487,0,0,0,2.087-2.677l-.454-.3a22.4,22.4,0,0,1-2.038,2.612Z" transform="translate(-298.287 -74.371)" fill="#92e3a9"/>
      <path id="パス_87" data-name="パス 87" d="M324.74,78.253h0l3.475,1.869L325.909,68.86l-10.666,4.289,3.475,1.869h0c-3.393,6.317-11.4,12.36-18.578,12.36v6.836C311.09,94.214,319.56,87.892,324.74,78.253Z" transform="translate(-286.643 -68.86)" fill="#92e3a9"/>
    </g>
    <g id="freepik--Character--inject-39" transform="translate(135.521 1059.669)">
      <path id="パス_88" data-name="パス 88" d="M243,194l4.858,2-2.049,3.683s-3.825-.41-4.262-3.6Z" transform="translate(-194.082 -136.716)" fill="#ffb473"/>
      <path id="パス_89" data-name="パス 89" d="M252.661,199.441l-1.1,2.382-2.208-.53,2.049-3.683Z" transform="translate(-197.62 -138.354)" fill="#ffb473"/>
      <path id="パス_90" data-name="パス 90" d="M157.512,144.28c-.415,1.994-.765,3.978-1.093,5.978s-.6,4.011-.831,6.043c-.126,1.011-.224,2.033-.311,3.076l-.06.792a9.247,9.247,0,0,0,0,1.093,6.649,6.649,0,0,0,.224,1.35,4.6,4.6,0,0,0,.934,1.776,3.716,3.716,0,0,0,1,.809,3.646,3.646,0,0,0,1.126.4,4.273,4.273,0,0,0,1.727-.055,6.464,6.464,0,0,0,2.022-.913,11.627,11.627,0,0,0,2.574-2.4l-2.022-2.508a21.516,21.516,0,0,1-2.5.825,1.639,1.639,0,0,1-.831.049c-.044,0,0-.087.229-.071a1.437,1.437,0,0,1,.863.437,5.013,5.013,0,0,1,.317.415c.033,0,.049-.044.076-.148l.093-.4.12-.71.546-2.891c.743-3.891,1.535-7.825,2.186-11.759Z" transform="translate(-154.916 -114.165)" fill="#ffb473"/>
      <path id="パス_91" data-name="パス 91" d="M167,172.093l2.464-2.973,3.126,4.038a4.682,4.682,0,0,1-3.759,1.224Z" transform="translate(-160.268 -125.431)" fill="#ffb473"/>
      <path id="パス_92" data-name="パス 92" d="M173.829,165.54l2.754,2.858-1.907,3.136L171.55,167.5Z" transform="translate(-162.332 -123.808)" fill="#ffb473"/>
      <path id="パス_93" data-name="パス 93" d="M198,110.085c-.027.344.137.645.361.678s.432-.224.454-.546-.137-.65-.361-.678S198,109.74,198,110.085Z" transform="translate(-174.327 -98.405)" fill="#263238"/>
      <path id="パス_94" data-name="パス 94" d="M197.973,111.72a13.157,13.157,0,0,0,1.426,3.158,1.9,1.9,0,0,1-1.639.087Z" transform="translate(-174.22 -99.396)" fill="#ec883e"/>
      <path id="パス_95" data-name="パス 95" d="M195.785,106.212a.213.213,0,0,1-.12-.1.2.2,0,0,1,.066-.273,1.989,1.989,0,0,1,1.847-.071.208.208,0,0,1,.1.273.2.2,0,0,1-.273.082h0a1.639,1.639,0,0,0-1.459.071.18.18,0,0,1-.158.016Z" transform="translate(-173.256 -96.609)" fill="#263238"/>
      <path id="パス_96" data-name="パス 96" d="M177.524,114.75c.727,3.158,1.541,8.939-.574,10.989,0,0,.967,3.207,6.792,3.344,6.41.142,2.951-3.126,2.951-3.126-3.524-.913-3.53-3.513-3.005-5.945Z" transform="translate(-164.781 -100.77)" fill="#ffb473"/>
      <path id="パス_97" data-name="パス 97" d="M173.439,133.938c-.59-.4.148-3.891.71-4.224,1.5-.9,8.978-.1,11.879,1.765.923,1.066-.115,2.918-.115,2.918Z" transform="translate(-163.09 -107.391)" fill="#263238"/>
      <path id="パス_98" data-name="パス 98" d="M171.193,408.1c.437,0,.863-.044,1.022-.251a.41.41,0,0,0,0-.486.508.508,0,0,0-.322-.246c-.634-.164-1.8.612-1.847.645a.087.087,0,0,0-.038.1.1.1,0,0,0,.077.082,5.744,5.744,0,0,0,1.109.159Zm.514-.8a.466.466,0,0,1,.126,0,.289.289,0,0,1,.191.142c.1.169.044.24.027.262-.175.235-1.055.213-1.7.087a3.175,3.175,0,0,1,1.355-.492Z" transform="translate(-161.631 -233.373)" fill="#92e3a9"/>
      <path id="パス_99" data-name="パス 99" d="M170.087,407.065h.049c.437-.229,1.273-1.142,1.169-1.639a.35.35,0,0,0-.333-.273.508.508,0,0,0-.426.115c-.492.393-.546,1.639-.546,1.677a.1.1,0,0,0,.049.093.077.077,0,0,0,.038.027Zm.82-1.716h.049c.131,0,.148.082.153.109.06.284-.47.978-.9,1.3a2.322,2.322,0,0,1,.47-1.333A.372.372,0,0,1,170.907,405.349Z" transform="translate(-161.629 -232.487)" fill="#92e3a9"/>
      <path id="パス_100" data-name="パス 100" d="M232.72,401.535c.546-.12,1.022-.311,1.093-.6a.393.393,0,0,0-.131-.432.546.546,0,0,0-.372-.158c-.743-.033-1.945,1.137-1.994,1.186a.093.093,0,0,0,0,.109.1.1,0,0,0,.1.066A7.031,7.031,0,0,0,232.72,401.535Zm.426-.962a.591.591,0,0,1,.191,0,.339.339,0,0,1,.235.093c.1.109.093.175.077.219-.115.311-1.153.546-1.951.628a4.223,4.223,0,0,1,1.448-.94Z" transform="translate(-189.432 -230.312)" fill="#92e3a9"/>
      <path id="パス_101" data-name="パス 101" d="M231.408,401.071h.033c.437-.339,1.164-1.475.951-1.934-.049-.1-.164-.224-.443-.191a.71.71,0,0,0-.492.3,2.861,2.861,0,0,0-.18,1.765.12.12,0,0,0,.066.082Zm.546-1.934h.06c.18,0,.213.044.224.066.126.279-.344,1.142-.76,1.574a2.322,2.322,0,0,1,.175-1.421.5.5,0,0,1,.273-.219Z" transform="translate(-189.394 -229.673)" fill="#92e3a9"/>
      <path id="パス_102" data-name="パス 102" d="M221.836,396.515l3.956-.8-1.656-10.442-3.956.8Z" transform="translate(-184.389 -223.472)" fill="#ffb473"/>
      <path id="パス_103" data-name="パス 103" d="M161.15,400.274l4.35.443.945-9.7-4.35-.448Z" transform="translate(-157.615 -225.876)" fill="#ffb473"/>
      <path id="パス_104" data-name="パス 104" d="M164.621,407.417l-4.83-.148a.35.35,0,0,0-.355.284l-.743,3.787a.672.672,0,0,0,.65.781c1.683,0,2.5-.049,4.623,0,1.306.038,5.426.361,7.218.235s1.8-1.912,1.044-2.027a13.764,13.764,0,0,1-6.9-2.639A1.093,1.093,0,0,0,164.621,407.417Z" transform="translate(-156.496 -233.451)" fill="#263238"/>
      <path id="パス_105" data-name="パス 105" d="M226.5,401.972,222,403.01a.35.35,0,0,0-.273.366l.246,3.918a.672.672,0,0,0,.8.612c1.639-.4,3.934-1.044,5.972-1.514,2.388-.546,3.432-.65,6.229-1.3,1.688-.393,1.667-2.24.913-2.235-3.426.027-5.027.311-8.306-.792A2.017,2.017,0,0,0,226.5,401.972Z" transform="translate(-185.092 -231.032)" fill="#263238"/>
      <path id="パス_106" data-name="パス 106" d="M159.188,136.159c-3.869,1.2-4.508,12.568-4.508,12.568l7.453,4.743a16.584,16.584,0,0,0,3.235-8.235C166.051,139.744,163.144,134.93,159.188,136.159Z" transform="translate(-154.68 -110.393)" fill="#92e3a9"/>
      <path id="パス_107" data-name="パス 107" d="M159.188,136.159c-3.869,1.2-4.508,12.568-4.508,12.568l7.453,4.743a16.584,16.584,0,0,0,3.235-8.235C166.051,139.744,163.144,134.93,159.188,136.159Z" transform="translate(-154.68 -110.393)" opacity="0.4"/>
      <path id="パス_108" data-name="パス 108" d="M166.52,155.971a12.081,12.081,0,0,0-1.71,4.962l1.918,1.219a16.114,16.114,0,0,0,3.038-7.011Z" transform="translate(-159.275 -119.09)" opacity="0.2"/>
      <path id="パス_109" data-name="パス 109" d="M186.945,136.366s4.743,5.273,1.574,37.157L165.6,173c-.284-3.53,1.317-20.7-2.667-37.419a58.808,58.808,0,0,1,7.65-.8,84.744,84.744,0,0,1,9.743.219A44.3,44.3,0,0,1,186.945,136.366Z" transform="translate(-158.422 -109.835)" fill="#92e3a9"/>
      <path id="パス_110" data-name="パス 110" d="M186.945,136.366s4.743,5.273,1.574,37.157L165.6,173c-.284-3.53,1.317-20.7-2.667-37.419a58.808,58.808,0,0,1,7.65-.8,84.744,84.744,0,0,1,9.743.219A44.3,44.3,0,0,1,186.945,136.366Z" transform="translate(-158.422 -109.835)" opacity="0.4"/>
      <path id="パス_111" data-name="パス 111" d="M206.812,155.637l-.087-.077-5.169,1.137c-.169,3.524,3.6,7.836,5.535,9.836a100.268,100.268,0,0,0-.279-10.9Z" transform="translate(-175.939 -119.281)" opacity="0.2"/>
      <path id="パス_112" data-name="パス 112" d="M224.126,385.28l.858,5.382-3.956.8-.858-5.382Z" transform="translate(-184.385 -223.477)" opacity="0.2"/>
      <path id="パス_113" data-name="パス 113" d="M162.466,390.57l4.355.448-.492,5-4.35-.443Z" transform="translate(-157.991 -225.876)" opacity="0.2"/>
      <path id="パス_114" data-name="パス 114" d="M176.968,101.835c-.055,4.257-.3,6.732,1.678,9.185a5.53,5.53,0,0,0,9.672-1.639c1.191-3.672,1.093-10.016-2.94-12.251A5.5,5.5,0,0,0,176.968,101.835Z" transform="translate(-164.771 -92.413)" fill="#ffb473"/>
      <path id="パス_115" data-name="パス 115" d="M182.654,100.993c1.137-1.229,1.721-2.732.672-4.011s3.415.607,4.617-2.186a2.628,2.628,0,0,0-3.432-3.606c-1.749.962-1.923-1.415-3.459-1.934s-2.4,1.382-3.983,1.492c-3.279.229-5.655-.251-4.606,2.732-2.137-.273-3.628,2.186-1.257,5.06,2.109,2.579,1.962,8.278,4.371,8.983S182.342,106.725,182.654,100.993Z" transform="translate(-161.627 -89.166)" fill="#263238"/>
      <path id="パス_116" data-name="パス 116" d="M188.99,108.59a5.011,5.011,0,0,0,.776,3.038c.781,1.2,1.836.77,2.186-.432.311-1.093.284-3-.765-3.792S189.111,107.328,188.99,108.59Z" transform="translate(-170.237 -97.288)" fill="#ffb473"/>
      <path id="パス_117" data-name="パス 117" d="M178.746,205.148s-.76,32.824-1.568,45.353c-.885,13.693-10,59.861-10,59.861l-7.868-.628s5.7-37.84,5.328-56.828c-.284-14.595-.683-48.085-.683-48.085Z" transform="translate(-156.78 -141.624)" fill="#263238"/>
      <path id="パス_118" data-name="パス 118" d="M168.047,392.473c.033,0-.88,2.94-.88,2.94l-8.858-.71.224-2.672Z" transform="translate(-156.326 -226.538)" fill="#92e3a9"/>
      <path id="パス_119" data-name="パス 119" d="M188.524,229.015c1.033-2.224,2.055-2.694,2.732-2.7-.251,9.005-.634,21.4-1.049,29.7C188.185,245.812,186.4,233.588,188.524,229.015Z" transform="translate(-169.596 -151.372)" opacity="0.3"/>
      <path id="パス_120" data-name="パス 120" d="M196.071,205.455s5.623,30.6,7.1,43.681c1.546,13.633,4.486,57.921,4.486,57.921l-6.978,1.639s-7.989-43.992-10.3-57.309c-2.519-14.513-10.8-46.287-10.8-46.287Z" transform="translate(-165.974 -141.751)" fill="#263238"/>
      <path id="パス_121" data-name="パス 121" d="M224.511,386c.033,0,.443,3.044.443,3.044l-8.491,1.962-.973-2.585Z" transform="translate(-182.262 -223.803)" fill="#92e3a9"/>
      <path id="パス_122" data-name="パス 122" d="M200.57,148.124c1.213,2.776,2.5,5.464,3.825,8.2s2.765,5.355,4.279,8l.574.984.317.546a8.128,8.128,0,0,0,.53.656,12.847,12.847,0,0,0,1.945,2,32.788,32.788,0,0,0,3.9,2.825,59.564,59.564,0,0,0,8.2,4.257l1.612-2.792c-2.3-1.809-4.645-3.65-6.819-5.508a40.229,40.229,0,0,1-3.027-2.83,9.125,9.125,0,0,1-1.044-1.322,1.583,1.583,0,0,1-.12-.224l-.224-.454-.475-.984c-1.268-2.639-2.514-5.317-3.748-8.005l-3.748-8.038Z" transform="translate(-175.495 -114.686)" fill="#ffb473"/>
      <path id="パス_123" data-name="パス 123" d="M195.118,141.864c-3.136,4.83,4.918,13.972,4.918,13.972l8.448-5.852a56.012,56.012,0,0,0-3.612-8.929C201.828,135.062,197.5,138.182,195.118,141.864Z" transform="translate(-172.693 -111.175)" fill="#92e3a9"/>
      <path id="パス_124" data-name="パス 124" d="M195.118,141.864c-3.136,4.83,4.918,13.972,4.918,13.972l8.448-5.852a56.012,56.012,0,0,0-3.612-8.929C201.828,135.062,197.5,138.182,195.118,141.864Z" transform="translate(-172.693 -111.175)" opacity="0.4"/>
      <path id="パス_125" data-name="パス 125" d="M193.7,140.243c.2-1.8,2.027-3.317,3.344-4.022a.29.29,0,0,0-.055-.546,11.809,11.809,0,0,0-2.6-.475,1.464,1.464,0,0,0-.907.279c-2.076,1.508-3.279,3.191-3.279,3.825C191.621,139.729,193.7,140.243,193.7,140.243Z" transform="translate(-170.791 -110.045)" fill="#92e3a9"/>
      <path id="パス_126" data-name="パス 126" d="M169.554,139.434a4.448,4.448,0,0,1-.24-4.431c.093-.175-.169-.459-.41-.443a9.1,9.1,0,0,0-2.289.339.732.732,0,0,0-.5.5c-.546,1.9-.279,3.7.175,4.262C167.63,139.592,169.554,139.434,169.554,139.434Z" transform="translate(-159.729 -109.755)" fill="#92e3a9"/>
      <path id="パス_127" data-name="パス 127" d="M181.32,142.064c2.022,3.727,3.328,19.764,2.492,25.321s-21.218,2.508-22.021.607c-1.869-4.421.546-22.627,1.093-25.206C163.954,137.632,178.7,137.239,181.32,142.064Z" transform="translate(-157.589 -111.62)" fill="#92e3a9"/>
      <path id="パス_128" data-name="パス 128" d="M173.516,164.247a.776.776,0,0,0,.77-.743l.033-.787a.754.754,0,0,0-.2-.546.787.787,0,0,0-.546-.251.754.754,0,0,0-.546.208.765.765,0,0,0-.251.546l-.033.787a.781.781,0,0,0,.208.546.765.765,0,0,0,.546.251h.033Zm.033-1.792h0a.213.213,0,0,1,.158.077.208.208,0,0,1,.06.164l-.033.787a.224.224,0,0,1-.071.158.284.284,0,0,1-.164.06h0a.23.23,0,0,1-.158-.077.251.251,0,0,1-.06-.164l.033-.787a.23.23,0,0,1,.076-.158A.213.213,0,0,1,173.549,162.455Z" transform="translate(-162.871 -122.165)" opacity="0.3"/>
      <path id="パス_129" data-name="パス 129" d="M172.827,158.663c3.279,0,6.4-.361,7.491-1.24,1.481-1.2,1.24-4.273,1.033-6.983-.126-1.639-.251-3.218.087-3.825a.279.279,0,0,0-.115-.372.273.273,0,0,0-.372.115c-.41.765-.284,2.328-.148,4.136.191,2.453.426,5.5-.831,6.519-2.24,1.814-14.049,1.2-15.994-.033a.273.273,0,1,0-.29.459C164.85,158.117,168.942,158.663,172.827,158.663Z" transform="translate(-158.697 -115.04)" opacity="0.3"/>
      <path id="パス_130" data-name="パス 130" d="M207.447,185.326a7.153,7.153,0,0,1-.153,1.639.393.393,0,0,1-.459.317c-.973-.191-3.552-.8-4.645-1.994l.2-4.918a11.475,11.475,0,0,0,4.836,4.645A.382.382,0,0,1,207.447,185.326Z" transform="translate(-176.229 -130.534)" fill="#92e3a9"/>
    </g>
    <path id="パス_131" data-name="パス 131" d="M281.984,180.655a4.962,4.962,0,0,1,2.328,1.093c.311-5.672,2.874-9.289,6.858-8.743,3.656.492,7.6,4.371,10.426,9.694.907-1.962,2.437-3.027,4.421-2.759,2.464.333,5.1,2.639,7.185,5.961a2.6,2.6,0,0,1,2.109-.607c2.055.273,4.268,2.535,5.781,5.606l-42.741-5.907C278.623,182.146,279.967,180.387,281.984,180.655Z" transform="translate(-9.253 958.5)" fill="#f5f5f5"/>
  </g>
</svg>
