<svg xmlns="http://www.w3.org/2000/svg" width="271.158" height="156.166" viewBox="0 0 271.158 156.166">
  <g id="グループ_49" data-name="グループ 49" transform="translate(-30.421 -37.528)">
    <ellipse id="楕円形_1" data-name="楕円形 1" cx="135.579" cy="5.987" rx="135.579" ry="5.987" transform="translate(30.421 181.719)" fill="#dedede" style="mix-blend-mode: multiply;isolation: isolate"/>
    <g id="グループ_42" data-name="グループ 42">
      <g id="グループ_8" data-name="グループ 8">
        <g id="グループ_2" data-name="グループ 2">
          <g id="グループ_1" data-name="グループ 1">
            <path id="パス_1" data-name="パス 1" d="M58.108,188.165a.355.355,0,0,1-.355-.348l-.71-33.911a.355.355,0,0,1,.347-.362H57.4a.355.355,0,0,1,.355.347l.71,33.911a.356.356,0,0,1-.347.363Z" fill="#f8c58c"/>
          </g>
        </g>
        <path id="パス_2" data-name="パス 2" d="M42.325,137.8a1.213,1.213,0,0,0-1.21,1.3,16.335,16.335,0,0,0,32.566,0,1.214,1.214,0,0,0-1.211-1.3Z" fill="#e0ba6a"/>
        <g id="グループ_3" data-name="グループ 3">
          <path id="パス_3" data-name="パス 3" d="M54.084,137.8H46.508a1.183,1.183,0,0,1-1.183-1.183h0a1.184,1.184,0,0,1,1.183-1.184h7.576a1.184,1.184,0,0,1,1.183,1.184h0A1.183,1.183,0,0,1,54.084,137.8Z" fill="#7d5b52"/>
          <path id="パス_4" data-name="パス 4" d="M68.287,137.8H60.712a1.184,1.184,0,0,1-1.184-1.183h0a1.184,1.184,0,0,1,1.184-1.184h7.575a1.184,1.184,0,0,1,1.184,1.184h0A1.184,1.184,0,0,1,68.287,137.8Z" fill="#7d5b52"/>
        </g>
        <path id="パス_5" data-name="パス 5" d="M45.332,148.8a16.33,16.33,0,0,0,28.349-9.7,1.214,1.214,0,0,0-1.211-1.3S66.809,157.014,45.332,148.8Z" fill="#bfbfbf" style="mix-blend-mode: multiply;isolation: isolate"/>
        <g id="グループ_5" data-name="グループ 5">
          <g id="グループ_4" data-name="グループ 4">
            <path id="パス_6" data-name="パス 6" d="M78.526,184.614a.354.354,0,0,1-.328-.22L64.172,150.483a.355.355,0,0,1,.656-.271l14.026,33.911a.355.355,0,0,1-.192.464A.366.366,0,0,1,78.526,184.614Z" fill="#f8c58c"/>
          </g>
        </g>
        <g id="グループ_7" data-name="グループ 7">
          <g id="グループ_6" data-name="グループ 6">
            <path id="パス_7" data-name="パス 7" d="M36.092,184.614a.356.356,0,0,1-.328-.491L49.79,150.212a.355.355,0,0,1,.656.271L36.42,184.394A.354.354,0,0,1,36.092,184.614Z" fill="#f8c58c"/>
          </g>
        </g>
      </g>
      <g id="グループ_13" data-name="グループ 13">
        <rect id="長方形_2" data-name="長方形 2" width="16.217" height="16.35" transform="matrix(-0.705, -0.709, 0.709, -0.705, 244.457, 107.111)" fill="#242022"/>
        <path id="長方形_3" data-name="長方形 3" d="M2.188,0H7.782A2.188,2.188,0,0,1,9.97,2.188V26.325a2.187,2.187,0,0,1-2.187,2.187H2.187A2.187,2.187,0,0,1,0,26.325V2.188A2.188,2.188,0,0,1,2.188,0Z" transform="matrix(-0.705, -0.709, 0.709, -0.705, 245.594, 118.441)" fill="#242022"/>
        <path id="長方形_4" data-name="長方形 4" d="M.813,0H15.139a.812.812,0,0,1,.812.812V2.776a.813.813,0,0,1-.813.813H.813A.813.813,0,0,1,0,2.776V.813A.813.813,0,0,1,.813,0Z" transform="translate(273.73 94.706) rotate(-134.811)" fill="#242022"/>
        <rect id="長方形_5" data-name="長方形 5" width="9.969" height="28.513" rx="2.187" transform="translate(228.732 101.466) rotate(-134.812)" fill="#242022"/>
        <path id="長方形_6" data-name="長方形 6" d="M2.187,0H5.348A2.187,2.187,0,0,1,7.536,2.187V24.431a2.187,2.187,0,0,1-2.187,2.187H2.188A2.188,2.188,0,0,1,0,24.431V2.187A2.187,2.187,0,0,1,2.187,0Z" transform="matrix(-0.705, -0.709, 0.709, -0.705, 245.409, 116.91)" fill="#1a1a1a" style="mix-blend-mode: screen;isolation: isolate"/>
        <path id="長方形_7" data-name="長方形 7" d="M2.187,0H5.348A2.188,2.188,0,0,1,7.536,2.188V24.431a2.188,2.188,0,0,1-2.188,2.188H2.187A2.187,2.187,0,0,1,0,24.431V2.187A2.187,2.187,0,0,1,2.187,0Z" transform="translate(228.546 99.935) rotate(-134.81)" fill="#1a1a1a" style="mix-blend-mode: screen;isolation: isolate"/>
        <path id="パス_8" data-name="パス 8" d="M262.91,83.814l10.4,10.468-8.724,5.294L257.559,92.5Z" fill="#515151"/>
        <g id="グループ_9" data-name="グループ 9">
          <rect id="長方形_8" data-name="長方形 8" width="11.963" height="3.489" rx="1.115" transform="matrix(-0.705, -0.709, 0.709, -0.705, 225.827, 105.757)" fill="#515151"/>
          <path id="パス_9" data-name="パス 9" d="M226.593,105l1-1a.979.979,0,0,0,.28-.779l-7.93-7.983a.985.985,0,0,0-.781.275l-1,1Z" fill="#bfbfbf" style="mix-blend-mode: multiply;isolation: isolate"/>
        </g>
        <g id="グループ_10" data-name="グループ 10">
          <rect id="長方形_9" data-name="長方形 9" width="11.963" height="3.489" rx="1.115" transform="translate(230.354 101.26) rotate(-134.811)" fill="#515151"/>
          <path id="パス_10" data-name="パス 10" d="M231.061,100.557l.849-.843-8.432-8.487-.848.843a.972.972,0,0,0-.27.578l8.122,8.175A.975.975,0,0,0,231.061,100.557Z" fill="#bfbfbf" style="mix-blend-mode: multiply;isolation: isolate"/>
        </g>
        <rect id="長方形_10" data-name="長方形 10" width="14.755" height="5.55" rx="1.25" transform="matrix(-0.705, -0.709, 0.709, -0.705, 228.343, 105.225)" fill="#515151"/>
        <g id="グループ_11" data-name="グループ 11">
          <rect id="長方形_11" data-name="長方形 11" width="11.963" height="3.489" rx="1.115" transform="translate(242.69 122.731) rotate(-134.811)" fill="#515151"/>
          <path id="パス_11" data-name="パス 11" d="M243.456,121.97l1-1a.98.98,0,0,0,.28-.779l-7.93-7.983a.978.978,0,0,0-.781.275l-1,1Z" fill="#bfbfbf" style="mix-blend-mode: multiply;isolation: isolate"/>
        </g>
        <g id="グループ_12" data-name="グループ 12">
          <rect id="長方形_12" data-name="長方形 12" width="11.963" height="3.489" rx="1.115" transform="matrix(-0.705, -0.709, 0.709, -0.705, 247.217, 118.235)" fill="#515151"/>
          <path id="パス_12" data-name="パス 12" d="M247.924,117.532l.849-.843-8.432-8.487-.849.843a.977.977,0,0,0-.269.577l8.121,8.175A.976.976,0,0,0,247.924,117.532Z" fill="#bfbfbf" style="mix-blend-mode: multiply;isolation: isolate"/>
        </g>
        <rect id="長方形_13" data-name="長方形 13" width="14.755" height="5.55" rx="1.25" transform="matrix(-0.705, -0.709, 0.709, -0.705, 245.206, 122.199)" fill="#515151"/>
        <path id="パス_13" data-name="パス 13" d="M246.047,66.84l10.4,10.468L247.722,82.6,240.7,75.528Z" fill="#515151"/>
        <path id="長方形_14" data-name="長方形 14" d="M.812,0H15.139a.813.813,0,0,1,.813.813V2.777a.812.812,0,0,1-.812.812H.813A.813.813,0,0,1,0,2.776V.812A.812.812,0,0,1,.812,0Z" transform="matrix(-0.705, -0.709, 0.709, -0.705, 256.867, 77.732)" fill="#242022"/>
        <path id="パス_14" data-name="パス 14" d="M251.379,88.805h0a1.729,1.729,0,0,1-.008,2.444L240.149,102.4a1.729,1.729,0,0,1-2.444-.008h0a1.728,1.728,0,0,1,.008-2.444L248.935,88.8A1.728,1.728,0,0,1,251.379,88.805Z" fill="#707274"/>
        <rect id="長方形_15" data-name="長方形 15" width="5.716" height="9.438" rx="1.458" transform="matrix(-0.705, -0.709, 0.709, -0.705, 243.208, 100.95)" fill="#3d4244"/>
        <rect id="長方形_16" data-name="長方形 16" width="0.598" height="16.35" transform="translate(242.958 105.602) rotate(-134.81)" fill="#707274"/>
        <rect id="長方形_17" data-name="長方形 17" width="0.598" height="16.35" transform="translate(235.089 97.681) rotate(-134.818)" fill="#707274"/>
        <rect id="長方形_18" data-name="長方形 18" width="9.969" height="1.778" transform="translate(246.461 83.854) rotate(-134.811)" fill="#707274"/>
        <rect id="長方形_19" data-name="長方形 19" width="9.97" height="1.778" transform="matrix(-0.705, -0.709, 0.709, -0.705, 263.323, 100.828)" fill="#707274"/>
      </g>
      <g id="グループ_14" data-name="グループ 14">
        <path id="パス_15" data-name="パス 15" d="M68.733,68.512l32.977-8.244,27.77,13.017,34.713-9.112,22.563,11.282L216.263,63.3l20.394,12.149V184.8l-20.828-9.546L189.794,184.8l-28.638-14.319L126.009,184.8,98.673,173.952,68.733,184.8Z" fill="#78923d" stroke="#fff" stroke-miterlimit="10" stroke-width="1"/>
        <path id="パス_16" data-name="パス 16" d="M222.338,108.757h14.319V99.645H207.042l2.848-33.716-8.822,3.632-3.138,34.965-36.449,1.627L138.7,136.744l-20.394-11.917H118.3A18.838,18.838,0,0,0,114.822,97.3l.056.025,14.6-24.042-6.725-3.153L107.134,93.787l1.211.553a18.761,18.761,0,0,0-21.6,10.444l.009-.056L82.4,102.791,84.577,64.55l-6.171,1.543-2.839,38.635-6.834,2.4v7.485l9.01-3.58,7.362,3.58v0a18.835,18.835,0,0,0,7.481,13.147l-.092-.045L81.75,143.578H68.733v9.113H83.052l16.272,12.691-7.858,11.181,7.207-2.611,5.207,2.067,3.254-5.755,22.346,13.122,12.669-5.161,2.735-33.345L173.6,143.2l36.863,34.024,5.368-1.968,20.828,9.546-27.662-22.672,27.662-21.478v-9.113l-33.52,24.72-17.9-14.848,22.78-1.736ZM103.88,102.791a9.871,9.871,0,1,1-9.872,9.871A9.871,9.871,0,0,1,103.88,102.791Zm30.59,73.331L92.164,147.484l8.136-15.947-1.4-.686a18.644,18.644,0,0,0,14.846-2.119l.006.019,22.021,15.478Zm14.319-40.354,15.621-21.153,46.212-1.953-8.136,18.875Z" fill="#fff"/>
        <path id="パス_17" data-name="パス 17" d="M222.338,108.757h14.319V99.645H207.042l2.848-33.716-8.822,3.632-3.138,34.965-36.449,1.627L138.7,136.744l-20.394-11.917H118.3A18.838,18.838,0,0,0,114.822,97.3l.056.025,14.6-24.042-6.725-3.153L107.134,93.787l1.211.553a18.761,18.761,0,0,0-21.6,10.444l.009-.056L82.4,102.791,84.577,64.55l-6.171,1.543-2.839,38.635-6.834,2.4v7.485l9.01-3.58,7.362,3.58v0a18.835,18.835,0,0,0,7.481,13.147l-.092-.045L81.75,143.578H68.733v9.113H83.052l16.272,12.691-7.858,11.181,7.207-2.611,5.207,2.067,3.254-5.755,22.346,13.122,12.669-5.161,2.735-33.345L173.6,143.2l36.863,34.024,5.368-1.968,20.828,9.546-27.662-22.672,27.662-21.478v-9.113l-33.52,24.72-17.9-14.848,22.78-1.736ZM103.88,102.791a9.871,9.871,0,1,1-9.872,9.871A9.871,9.871,0,0,1,103.88,102.791Zm30.59,73.331L92.164,147.484l8.136-15.947-1.4-.686a18.644,18.644,0,0,0,14.846-2.119l.006.019,22.021,15.478Zm14.319-40.354,15.621-21.153,46.212-1.953-8.136,18.875Z" fill="#fff"/>
        <path id="パス_18" data-name="パス 18" d="M186.757,75.454,164.193,64.172l-4.577,1.2,1.653,105.164L189.794,184.8V74.2Z" fill="#bfbfbf" style="mix-blend-mode: multiply;isolation: isolate"/>
        <path id="パス_19" data-name="パス 19" d="M213.462,176.122l2.367-.868,20.828,9.546V75.454l-20.34-12.117Z" fill="#bfbfbf" style="mix-blend-mode: multiply;isolation: isolate"/>
        <path id="パス_20" data-name="パス 20" d="M102.105,60.452,100.546,174.7l25.463,10.1L129.48,73.285Z" fill="#bfbfbf" style="mix-blend-mode: multiply;isolation: isolate"/>
      </g>
      <path id="パス_21" data-name="パス 21" d="M194.429,50.067c.327-1.121,1.3-2.624,4.183-2.143a.871.871,0,0,0,1-.682c.247-1.167,1.128-2.968,4.25-1.971a.86.86,0,0,0,1.051-.475c.7-1.591,2.916-4.839,8.728-1.476a.877.877,0,0,0,.578.108c.915-.149,3.643-.385,4.062,1.987a.865.865,0,0,0,1.111.7c2.228-.71,7.162-1.616,7.459,4.153a.863.863,0,0,1-.859.91H195.253A.863.863,0,0,1,194.429,50.067Z" fill="#fff"/>
      <path id="パス_22" data-name="パス 22" d="M222.8,59.042c.147-.506.586-1.185,1.888-.968a.392.392,0,0,0,.45-.307c.112-.527.509-1.34,1.918-.89a.388.388,0,0,0,.475-.214c.314-.718,1.316-2.184,3.939-.667a.391.391,0,0,0,.261.049c.413-.067,1.644-.174,1.833.9a.391.391,0,0,0,.5.315c1-.32,3.232-.729,3.366,1.875a.389.389,0,0,1-.388.41H223.169A.389.389,0,0,1,222.8,59.042Z" fill="#fff"/>
      <path id="パス_23" data-name="パス 23" d="M142.515,59.2c-.154-.528-.611-1.235-1.967-1.008a.41.41,0,0,1-.47-.321c-.116-.549-.53-1.4-2-.927a.405.405,0,0,1-.495-.224c-.327-.748-1.371-2.275-4.105-.694a.41.41,0,0,1-.272.051c-.43-.07-1.713-.181-1.91.934a.408.408,0,0,1-.522.329c-1.048-.334-3.369-.76-3.509,1.953a.406.406,0,0,0,.4.428h14.455A.405.405,0,0,0,142.515,59.2Z" fill="#fff"/>
      <g id="グループ_15" data-name="グループ 15">
        <path id="パス_24" data-name="パス 24" d="M187.628,65.619c0,8.507-15.4,34.93-15.4,34.93s-15.4-26.423-15.4-34.93a15.4,15.4,0,1,1,30.808,0Z" fill="#6dbcdb"/>
        <circle id="楕円形_2" data-name="楕円形 2" cx="8.787" cy="8.787" r="8.787" transform="matrix(0.993, -0.122, 0.122, 0.993, 162.43, 58.758)" fill="#fff"/>
      </g>
      <g id="グループ_21" data-name="グループ 21">
        <g id="グループ_20" data-name="グループ 20">
          <rect id="長方形_20" data-name="長方形 20" width="79.864" height="18.223" rx="5.173" transform="translate(216.399 103.949)" fill="#8baea9"/>
          <g id="グループ_19" data-name="グループ 19">
            <g id="グループ_18" data-name="グループ 18">
              <g id="グループ_16" data-name="グループ 16">
                <rect id="長方形_21" data-name="長方形 21" width="4.687" height="18.165" transform="translate(241.377 103.949)"/>
              </g>
              <g id="グループ_17" data-name="グループ 17">
                <rect id="長方形_22" data-name="長方形 22" width="4.687" height="18.165" transform="translate(266.597 103.949)"/>
              </g>
            </g>
          </g>
        </g>
        <rect id="長方形_23" data-name="長方形 23" width="62.408" height="67.435" rx="4.167" transform="translate(225.41 121.503)" fill="#e0ba6a"/>
        <rect id="長方形_24" data-name="長方形 24" width="55.474" height="31.704" rx="3.5" transform="translate(228.877 119.27)" fill="#8c8070"/>
        <rect id="長方形_25" data-name="長方形 25" width="40.045" height="17.856" rx="3.25" transform="translate(236.592 163.628)" fill="#8c8070"/>
        <path id="パス_25" data-name="パス 25" d="M287.818,185.471h0v-28.43h0a6.414,6.414,0,0,1,6.414,6.414v15.6A6.414,6.414,0,0,1,287.818,185.471Z" fill="#e0ba6a"/>
        <path id="パス_26" data-name="パス 26" d="M225.584,185.471h0v-28.43h0a6.414,6.414,0,0,0-6.415,6.414v15.6A6.415,6.415,0,0,0,225.584,185.471Z" fill="#e0ba6a"/>
        <path id="パス_27" data-name="パス 27" d="M244.653,176.283h0a1.3,1.3,0,0,1-1.3-1.3V130.777a1.3,1.3,0,0,1,1.3-1.3h0a1.3,1.3,0,0,1,1.3,1.3v44.206A1.3,1.3,0,0,1,244.653,176.283Z" fill="#f6edd3"/>
        <path id="パス_28" data-name="パス 28" d="M268.576,176.283h0a1.3,1.3,0,0,1-1.3-1.3V130.777a1.3,1.3,0,0,1,1.3-1.3h0a1.3,1.3,0,0,1,1.3,1.3v44.206A1.3,1.3,0,0,1,268.576,176.283Z" fill="#f6edd3"/>
        <rect id="長方形_26" data-name="長方形 26" width="9.014" height="6.587" rx="1.833" transform="translate(240.145 152.88)" fill="none" stroke="#000" stroke-miterlimit="10" stroke-width="1"/>
        <rect id="長方形_27" data-name="長方形 27" width="9.014" height="6.587" rx="1.833" transform="translate(264.068 152.88)" fill="none" stroke="#000" stroke-miterlimit="10" stroke-width="1"/>
        <path id="パス_29" data-name="パス 29" d="M246.039,125.317a1.386,1.386,0,1,1-1.386-1.387A1.386,1.386,0,0,1,246.039,125.317Z" fill="#f6edd3"/>
        <path id="パス_30" data-name="パス 30" d="M269.962,125.317a1.387,1.387,0,1,1-1.386-1.387A1.386,1.386,0,0,1,269.962,125.317Z" fill="#f6edd3"/>
        <path id="パス_31" data-name="パス 31" d="M287.818,157.041v12.828h6.414v-6.414A6.414,6.414,0,0,0,287.818,157.041Z" fill="#8c8070"/>
        <path id="パス_32" data-name="パス 32" d="M219.169,163.455v6.414h6.415V157.041A6.414,6.414,0,0,0,219.169,163.455Z" fill="#8c8070"/>
        <path id="パス_33" data-name="パス 33" d="M229.744,188.938h53.74a4.333,4.333,0,0,0,4.334-4.334H225.41A4.334,4.334,0,0,0,229.744,188.938Z" fill="#f6edd3"/>
      </g>
      <g id="グループ_23" data-name="グループ 23">
        <rect id="長方形_28" data-name="長方形 28" width="12.341" height="15.372" rx="3" transform="translate(82.533 130.537)" fill="#e6d8c8"/>
        <g id="グループ_22" data-name="グループ 22">
          <path id="パス_34" data-name="パス 34" d="M100.72,171.782H92.276a2.927,2.927,0,0,1-2.923-2.923v-19.7a2.926,2.926,0,0,1,2.923-2.923h8.444a2.926,2.926,0,0,1,2.923,2.923v19.7A2.927,2.927,0,0,1,100.72,171.782Zm-8.444-23.6a.975.975,0,0,0-.974.974v19.7a.975.975,0,0,0,.974.974h8.444a.975.975,0,0,0,.974-.974v-19.7a.975.975,0,0,0-.974-.974Z" fill="#838a88"/>
        </g>
        <rect id="長方形_29" data-name="長方形 29" width="12.341" height="15.372" rx="3" transform="translate(82.533 170.807)" fill="#838a88"/>
        <path id="長方形_30" data-name="長方形 30" d="M4.688,0h9.892a4.688,4.688,0,0,1,4.688,4.688V43.95a4.688,4.688,0,0,1-4.688,4.688H4.689A4.689,4.689,0,0,1,0,43.95V4.688A4.688,4.688,0,0,1,4.688,0Z" transform="translate(79.069 135.809)" fill="#515151"/>
        <rect id="長方形_31" data-name="長方形 31" width="19.269" height="5.436" transform="translate(79.069 144.342)" fill="#e6d8c8"/>
        <rect id="長方形_32" data-name="長方形 32" width="19.269" height="5.437" transform="translate(79.069 167.724)" fill="#e6d8c8"/>
        <path id="パス_35" data-name="パス 35" d="M84.542,178.493h0a2.008,2.008,0,0,1-2.009-2.008V141.536a2.008,2.008,0,0,1,2.009-2.009h0a2.008,2.008,0,0,1,2.008,2.009v34.949A2.008,2.008,0,0,1,84.542,178.493Z" fill="#333" style="mix-blend-mode: screen;isolation: isolate"/>
      </g>
      <g id="グループ_32" data-name="グループ 32">
        <g id="グループ_24" data-name="グループ 24">
          <path id="パス_36" data-name="パス 36" d="M64.44,137.042a1.209,1.209,0,0,0,1.449-.91L77.213,86.509A21.342,21.342,0,0,1,80.9,78.492L99.578,53.3a1.21,1.21,0,1,0-1.943-1.442L78.957,77.05a23.777,23.777,0,0,0-4.1,8.921L63.53,135.593A1.21,1.21,0,0,0,64.44,137.042Z" fill="#6d5336"/>
        </g>
        <g id="グループ_25" data-name="グループ 25">
          <path id="パス_37" data-name="パス 37" d="M77.228,83.088a1.211,1.211,0,0,0,1.422-1.546l-2.942-9.286,2.349-10.3a1.21,1.21,0,1,0-2.359-.538L73.275,72.039a1.213,1.213,0,0,0,.026.635l3.041,9.6A1.215,1.215,0,0,0,77.228,83.088Z" fill="#6d5336"/>
        </g>
        <g id="グループ_26" data-name="グループ 26">
          <path id="パス_38" data-name="パス 38" d="M84.945,71.822a1.2,1.2,0,0,0,.191.028l12.8.837a1.21,1.21,0,0,0,.158-2.415l-12.8-.837a1.21,1.21,0,0,0-.35,2.387Z" fill="#6d5336"/>
        </g>
        <g id="グループ_30" data-name="グループ 30">
          <g id="グループ_29" data-name="グループ 29">
            <g id="グループ_27" data-name="グループ 27">
              <path id="パス_39" data-name="パス 39" d="M111.833,51.165l-10.8,13.36L101,64.5c-.876.387-4.326-1.545-8.018-4.529s-6.305-5.951-6.111-6.889l-.035-.028,10.8-13.36Z" fill="#fff"/>
            </g>
            <g id="グループ_28" data-name="グループ 28">
              <path id="パス_40" data-name="パス 40" d="M97.409,39.971c-.582.721,2.124,3.873,6.045,7.042s7.571,5.153,8.153,4.432-2.124-3.874-6.044-7.042S97.992,39.25,97.409,39.971Z" fill="#e6e6e6"/>
            </g>
          </g>
        </g>
        <g id="グループ_31" data-name="グループ 31">
          <path id="パス_41" data-name="パス 41" d="M104.962,46.483a1.208,1.208,0,0,0,1.217-.426l5.221-6.566a1.209,1.209,0,0,0-1.893-1.506l-5.222,6.566a1.209,1.209,0,0,0,.677,1.932Z" fill="#6d5336"/>
        </g>
      </g>
      <g id="グループ_40" data-name="グループ 40">
        <rect id="長方形_33" data-name="長方形 33" width="1.176" height="1.964" transform="translate(152.171 162.009)"/>
        <circle id="楕円形_3" data-name="楕円形 3" cx="10.081" cy="10.081" r="10.081" transform="matrix(0.23, -0.973, 0.973, 0.23, 140.567, 181.603)" fill="#fff" stroke="#000" stroke-miterlimit="10" stroke-width="3"/>
        <path id="パス_42" data-name="パス 42" d="M153.564,174.108a.869.869,0,1,1-.869-.87A.869.869,0,0,1,153.564,174.108Z"/>
        <g id="グループ_33" data-name="グループ 33">
          <path id="パス_43" data-name="パス 43" d="M152.759,167.345a.131.131,0,0,1-.131-.131v-2.106a.131.131,0,1,1,.262,0v2.106A.131.131,0,0,1,152.759,167.345Z" fill="#fff"/>
        </g>
        <g id="グループ_34" data-name="グループ 34">
          <path id="パス_44" data-name="パス 44" d="M152.759,167.345a.131.131,0,0,1-.131-.131v-2.106a.131.131,0,1,1,.262,0v2.106A.131.131,0,0,1,152.759,167.345Z" fill="#5d5d5d"/>
        </g>
        <g id="グループ_35" data-name="グループ 35">
          <path id="パス_45" data-name="パス 45" d="M159.548,174.252a.131.131,0,0,1,.131-.132l2.106-.012a.131.131,0,0,1,.132.13.132.132,0,0,1-.131.132l-2.106.012A.132.132,0,0,1,159.548,174.252Z" fill="#5d5d5d"/>
        </g>
        <g id="グループ_36" data-name="グループ 36">
          <path id="パス_46" data-name="パス 46" d="M152.7,180.87a.129.129,0,0,1,.13.131l-.011,2.107a.131.131,0,0,1-.262,0l.011-2.106A.131.131,0,0,1,152.7,180.87Z" fill="#5d5d5d"/>
        </g>
        <g id="グループ_37" data-name="グループ 37">
          <path id="パス_47" data-name="パス 47" d="M145.813,174.256a.132.132,0,0,1-.132.13l-2.107-.02a.131.131,0,0,1,0-.262l2.106.02A.131.131,0,0,1,145.813,174.256Z" fill="#5d5d5d"/>
        </g>
        <g id="グループ_38" data-name="グループ 38">
          <path id="パス_48" data-name="パス 48" d="M152.759,162.2a2.387,2.387,0,1,1,2.387-2.387A2.39,2.39,0,0,1,152.759,162.2Zm0-4.3a1.91,1.91,0,1,0,1.91,1.91A1.912,1.912,0,0,0,152.759,157.9Z"/>
        </g>
        <g id="グループ_39" data-name="グループ 39">
          <path id="パス_49" data-name="パス 49" d="M147.617,179.466a.477.477,0,0,1-.333-.819l9.787-9.548a.477.477,0,1,1,.667.683l-9.787,9.549A.478.478,0,0,1,147.617,179.466Z" fill="#b96b6e"/>
        </g>
        <path id="パス_50" data-name="パス 50" d="M157.746,169.107a.477.477,0,0,0-.675-.008l-4.716,4.6h0l.689.662,4.694-4.58A.477.477,0,0,0,157.746,169.107Z" fill="#6dbcdb"/>
      </g>
      <g id="グループ_41" data-name="グループ 41">
        <rect id="長方形_34" data-name="長方形 34" width="58.214" height="34.673" rx="2.84" transform="translate(183.401 154.799)" fill="#515151"/>
        <path id="パス_51" data-name="パス 51" d="M224.549,153.919l-4.926-4.083a.83.83,0,0,0-.531-.192H205.828a.833.833,0,0,0-.538.2l-4.828,4.083a.832.832,0,0,0,.537,1.468h23.018A.832.832,0,0,0,224.549,153.919Z" fill="#8d9392"/>
        <rect id="長方形_35" data-name="長方形 35" width="7.802" height="4.197" rx="0.998" transform="translate(230.105 153.066)"/>
        <rect id="長方形_36" data-name="長方形 36" width="3.148" height="4.927" rx="0.687" transform="translate(189.867 152.336)"/>
        <path id="パス_52" data-name="パス 52" d="M189.228,158.358h0a.456.456,0,0,1-.456-.456v-4.015a.456.456,0,0,1,.456-.456h0a.456.456,0,0,1,.456.456V157.9A.456.456,0,0,1,189.228,158.358Z"/>
        <path id="パス_53" data-name="パス 53" d="M241.615,165.384v-7.209a3.376,3.376,0,0,0-3.376-3.376H186.778a3.377,3.377,0,0,0-3.377,3.376v7.209Z" fill="#8d9392"/>
        <path id="長方形_37" data-name="長方形 37" d="M1.779,0h24.91a1.779,1.779,0,0,1,1.779,1.779V6.8a1.779,1.779,0,0,1-1.779,1.779H1.78A1.78,1.78,0,0,1,0,6.8V1.779A1.779,1.779,0,0,1,1.779,0Z" transform="translate(197.909 154.799)"/>
        <path id="パス_54" data-name="パス 54" d="M224.963,172.136a12.455,12.455,0,1,1-12.455-12.455A12.455,12.455,0,0,1,224.963,172.136Z" fill="#424242"/>
        <circle id="楕円形_4" data-name="楕円形 4" cx="11.177" cy="11.177" r="11.177" transform="translate(198.823 180.046) rotate(-75.028)" fill="#8e9795"/>
        <path id="パス_55" data-name="パス 55" d="M223.07,172.136a10.562,10.562,0,1,1-10.562-10.562A10.561,10.561,0,0,1,223.07,172.136Z" fill="#5f6266"/>
        <path id="パス_56" data-name="パス 56" d="M222.522,172.136a10.014,10.014,0,1,1-10.014-10.014A10.014,10.014,0,0,1,222.522,172.136Z" fill="#6dbcdb"/>
        <path id="パス_57" data-name="パス 57" d="M219.612,171.178a5.064,5.064,0,1,1-5.064-5.064A5.064,5.064,0,0,1,219.612,171.178Z" fill="#333" style="mix-blend-mode: screen;isolation: isolate"/>
        <path id="パス_58" data-name="パス 58" d="M187.859,168.44a.889.889,0,1,1-.889-.889A.889.889,0,0,1,187.859,168.44Z" fill="#8d9392"/>
        <path id="パス_59" data-name="パス 59" d="M239.321,168.44a.889.889,0,1,1-.889-.889A.889.889,0,0,1,239.321,168.44Z" fill="#8d9392"/>
      </g>
    </g>
  </g>
</svg>
