<svg xmlns="http://www.w3.org/2000/svg" width="374.999" height="37.423" viewBox="0 0 374.999 37.423">
  <path id="前面オブジェクトで型抜き_2" data-name="前面オブジェクトで型抜き 2" d="M381,37.423H6V11.22c18.312,3.047,37.246,6.2,61.979,7.813,9.8.64,19.429.964,28.636.964,9.75,0,19.365-.362,28.576-1.076,10.389-.805,20.579-2.082,30.288-3.794,10.718-1.89,21.575-4.429,32.074-6.885C205.679,4,222.8,0,236.368,0A57.58,57.58,0,0,1,242.2.28a48.164,48.164,0,0,1,15.008,4.115A115.2,115.2,0,0,1,269.88,11.4c7.321,4.462,14.891,9.077,24.92,11.014a71.67,71.67,0,0,0,13.448,1.143c9.1,0,20.269-1.262,34.145-3.857,12.38-2.315,25.713-5.452,38.607-8.485V37.422Z" transform="translate(-6 0)" fill="#4dc0b2"/>
</svg>
